{"title":"Raanjhanaa 2013 Hindi Movies PDvDRip Sample Included ~ â˜»rDXâ˜»","uid":8618764,"size":729581544,"categoryP":"video","categoryS":"movies","magnet":"?xt=urn:btih:60e0210f7d68d70d07a94c6b62a5e19c161975ac&amp;dn=Raanjhanaa+2013+Hindi+Movies+PDvDRip+Sample+Included+%7E+%E2%98%BBrDX%E2%98%BB&amp;tr=udp%3A%2F%2Ftracker.openbittorrent.com%3A80&amp;tr=udp%3A%2F%2Fopen.demonii.com%3A1337&amp;tr=udp%3A%2F%2Ftracker.coppersurfer.tk%3A6969&amp;tr=udp%3A%2F%2Fexodus.desync.com%3A6969","seeders":2,"leechers":0,"uploader":"basicssom","files":2,"time":1372318160,"description":"Raanjhanaa 2013 Hindi Movies PDvDRip Sample Included ~ â˜»rDXâ˜»\n\nScreen Shots :\n &lt;a href=&quot;\nhttp://myimghosting.serveftp.com/13/RaanjhanaaPD.html&quot; rel=&quot;nofollow&quot; target=&quot;_NEW&quot;&gt;\nhttp://myimghosting.serveftp.com/13/RaanjhanaaPD.html&lt;/a&gt;\n &lt;a href=&quot;\nhttp://myimghost.cwahi.net/RaanjhanaaPD.html&quot; rel=&quot;nofollow&quot; target=&quot;_NEW&quot;&gt;\nhttp://myimghost.cwahi.net/RaanjhanaaPD.html&lt;/a&gt;\n &lt;a href=&quot;\nhttp://users2.jabry.com/myimghost/Raanjhanaa/Raanjhanaa.jpg&quot; rel=&quot;nofollow&quot; target=&quot;_NEW&quot;&gt;\nhttp://users2.jabry.com/myimghost/Raanjhanaa/Raanjhanaa.jpg&lt;/a&gt;\n\nFormat                                   : AVI\nFormat/Info                              : Audio Video Interleave\nFile size                                : 683 MiB\nDuration                                 : 2h 10mn\nOverall bit rate                         : 732 Kbps\nWriting library                          : MPlayer\n\nVideo\nID                                       : 0\nFormat                                   : MPEG-4 Visual\nFormat profile                           : Advanced Simple@L5\nFormat settings, BVOP                    : 1\nFormat settings, QPel                    : No\nFormat settings, GMC                     : No warppoints\nFormat settings, Matrix                  : Default (H.263)\nMuxing mode                              : Packed bitstream\nCodec ID                                 : XVID\nCodec ID/Hint                            : XviD\nDuration                                 : 2h 10mn\nBit rate                                 : 646 Kbps\nWidth                                    : 688 pixels\nHeight                                   : 272 pixels\nDisplay aspect ratio                     : 2.529\nFrame rate                               : 23.976 fps\nColor space                              : YUV\nChroma subsampling                       : 4:2:0\nBit depth                                : 8 bits\nScan type                                : Progressive\nCompression mode                         : Lossy\nBits/(Pixel*Frame)                       : 0.144\nStream size                              : 604 MiB (88%)\nWriting library                          : XviD 1.2.1 (UTC 2008-12-04)\n\nAudio\nID                                       : 1\nFormat                                   : MPEG Audio\nFormat version                           : Version 1\nFormat profile                           : Layer 3\nMode                                     : Joint stereo\nMode extension                           : MS Stereo\nCodec ID                                 : 55\nCodec ID/Hint                            : MP3\nDuration                                 : 2h 10mn\nBit rate mode                            : Constant\nBit rate                                 : 80.0 Kbps\nChannel(s)                               : 2 channels\nSampling rate                            : 32.0 KHz\nCompression mode                         : Lossy\nStream size                              : 74.7 MiB (11%)\nAlignment                                : Split accross interleaves\nInterleave, duration                     : 500 ms (11.99 video frames)\nInterleave, preload duration             : 500 ms\n\n","torrent":{"xt":"urn:btih:60e0210f7d68d70d07a94c6b62a5e19c161975ac","amp;dn":"Raanjhanaa+2013+Hindi+Movies+PDvDRip+Sample+Included+%7E+%E2%98%BBrDX%E2%98%BB","amp;tr":["udp%3A%2F%2Ftracker.openbittorrent.com%3A80","udp%3A%2F%2Fopen.demonii.com%3A1337","udp%3A%2F%2Ftracker.coppersurfer.tk%3A6969","udp%3A%2F%2Fexodus.desync.com%3A6969"],"infoHash":"60e0210f7d68d70d07a94c6b62a5e19c161975ac","infoHashBuffer":{"type":"Buffer","data":[96,224,33,15,125,104,215,13,7,169,76,107,98,165,225,156,22,25,117,172]},"announce":[],"urlList":[]}}